Filename:
Legend of Guardians CAM XViD-MAGNET

Legend of the Guardians The Owls of Ga'Hoole

MAGNET GRoUP PROUDLY PRESENTS :

Are you interested in joining group MAGNET? We are looking for:
1. Unreleased Cams, TS, Cammers
2. Audio, directline, IR
3. pre retail / retail dvds
4. unreleased television

got something else you think is useful? let us know!

magnetgroup@live.com

Suppliers recieve special access and privlage$

-The MAGNET

General
Complete name                    : Legend.of.Guardians.CAM.XViD-MAGNET.avi
Format                           : AVI
Format/Info                      : Audio Video Interleave
File size                        : 1.01 GiB
Duration                         : 1h 27mn
Overall bit rate                 : 1 639 Kbps
Source                             :Cristall = Thanks

IMDB                                : http://www.imdb.com/title/tt1219342/
Audio                                : English

Video
ID                               : 0
Format                           : MPEG-4 Visual
Format profile                   : Advanced Simple@L5
Format settings, BVOP            : Yes
Format settings, QPel            : No
Format settings, GMC             : No warppoints
Format settings, Matrix          : Default (H.263)
Codec ID                         : XVID
Codec ID/Hint                    : XviD
Duration                         : 1h 27mn
Bit rate                         : 1 500 Kbps
Width                            : 720 pixels
Height                           : 304 pixels
Display aspect ratio             : 2.35:1
Frame rate                       : 29.970 fps
Color space                      : YUV
Chroma subsampling               : 4:2:0
Bit depth                        : 8 bits
Scan type                        : Progressive
Bits/(Pixel*Frame)               : 0.229
Stream size                      : 944 MiB (91%)
Writing library                  : XviD 1.2.1 (UTC 2008-12-04)

Audio

ID                               : 1
Format                           : MPEG Audio
Format version                   : Version 1
Format profile                   : Layer 2
Codec ID                         : 50
Duration                         : 1h 27mn
Bit rate mode                    : Constant
Bit rate                         : 128 Kbps
Channel(s)                       : 2 channels
Sampling rate                    : 48.0 KHz
Bit depth                        : 16 bits
Stream size                      : 80.5 MiB (8%)
Alignment                        : Aligned on interleaves
Interleave, duration             : 33 ms (1.00 video frame)